<svg width="634" height="756" viewBox="0 0 634 756" fill="none" xmlns="http://www.w3.org/2000/svg">
<g clip-path="url(#clip0_657_775)">
<path d="M185.851 54.0975C170.436 58.8411 156.448 65.2449 143.902 73.3697C131.389 81.4825 121.563 90.3572 114.449 99.9761L-58.638 334.847C-83.4992 368.577 -92.7791 398.564 -86.5302 424.879C-80.2421 451.173 -63.6004 474.306 -36.5464 494.246L232.474 692.528C261.871 714.195 288.688 723.106 312.958 719.322C337.225 715.524 361.786 696.763 386.63 663.056L560.123 427.668L336.554 461.237C326.558 462.738 317.571 461.329 309.561 457.02C301.55 452.712 296.669 444.838 294.93 433.446L279.216 330.473C278.667 326.877 278.946 322.854 280.023 318.41C281.093 313.96 283.001 309.665 285.728 305.584C288.455 301.503 291.814 297.839 295.793 294.644C299.792 291.44 304.587 289.407 310.203 288.563L534.023 254.936L278.585 66.6892C264.65 56.4187 249.595 50.5849 233.358 49.1547C217.116 47.6972 201.279 49.352 185.851 54.0975ZM164.534 310.415C168.283 309.852 172.475 310.079 177.093 311.07C181.711 312.062 186.282 313.762 190.803 316.144C195.324 318.526 199.25 321.7 202.542 325.649C205.862 329.595 207.932 334.275 208.747 339.664L224.666 443.982C228.056 466.191 216.798 479.212 190.887 483.102L99.5344 496.819C86.435 498.786 76.7423 497.489 70.4404 492.917C64.1602 488.349 60.1379 480.354 58.3972 468.947L42.4779 364.629C40.8776 354.142 42.3256 345.269 46.7902 337.985C51.2865 330.725 60.0823 326.098 73.1759 324.139L164.529 310.423L164.534 310.415Z" fill="#EA581B"/>
</g>
<defs>
<clipPath id="clip0_657_775">
<rect width="553.169" height="531.152" fill="white" transform="translate(188.137 3.8147e-06) rotate(36.3921)"/>
</clipPath>
</defs>
</svg>
