<svg width="958" height="326" viewBox="0 0 958 326" fill="none" xmlns="http://www.w3.org/2000/svg">
<path d="M74.9902 47.03C75.0802 46.46 75.3802 45.84 75.8802 45.17C76.3802 44.5 77.0002 43.88 77.7302 43.31C78.4602 42.74 79.2402 42.29 80.0602 41.95C80.8802 41.62 81.6602 41.45 82.3902 41.45H117.54C119.09 41.45 120.42 41.95 121.52 42.95C122.62 43.95 123.44 44.83 123.99 45.59L127.42 53.74L199.51 247.3C200.24 249.21 200.1 250.76 199.1 251.95C198.09 253.14 196.35 253.74 193.88 253.74H154.47C152.36 253.74 150.74 253.34 149.6 252.52C148.45 251.71 147.56 250.35 146.92 248.45C145.09 243.59 143.3 238.75 141.57 233.94C139.83 229.13 138.09 224.29 136.35 219.43H63.4502C61.7102 224.29 59.9502 229.13 58.1602 233.94C56.3702 238.75 54.6102 243.59 52.8702 248.45C51.6802 251.98 49.3502 253.74 45.8702 253.74H5.37017C3.63017 253.74 2.19017 253.26 1.05017 252.31C-0.0898321 251.36 -0.299832 249.93 0.430168 248.02L74.9902 47.03ZM99.9802 108.21C98.2402 113.07 96.4802 118.31 94.6902 123.93C92.9102 129.55 91.1402 135.22 89.4002 140.94C87.6602 146.66 85.9002 152.31 84.1102 157.88C82.3202 163.45 80.5602 168.67 78.8202 173.53H120.97L99.9602 108.2L99.9802 108.21Z" fill="black"/>
<path d="M247.31 197.28C249.78 199.85 252.46 202.02 255.34 203.78C258.22 205.55 260.99 206.97 263.65 208.07C266.3 209.17 268.64 209.95 270.65 210.43C272.66 210.91 274.04 211.14 274.77 211.14C276.51 211.14 278.73 211.07 281.43 210.93C284.13 210.79 286.72 210.36 289.19 209.64C291.66 208.93 293.79 207.76 295.57 206.14C297.36 204.52 298.25 202.23 298.25 199.28C298.25 196.61 297.75 194.49 296.74 192.92C295.73 191.35 294.27 190.01 292.35 188.92C290.43 187.83 288.07 186.85 285.28 185.99C282.49 185.13 279.35 184.13 275.87 182.99C264.89 179.94 255.82 176.27 248.68 171.98C241.54 167.69 235.89 162.9 231.72 157.61C227.55 152.32 224.65 146.63 223 140.53C221.35 134.43 220.53 128 220.53 121.23C220.53 113.32 222.04 106.13 225.06 99.64C228.08 93.16 232.38 87.61 237.97 82.99C243.55 78.37 250.24 74.79 258.02 72.27C265.8 69.75 274.45 68.48 283.97 68.48C289.74 68.48 295.14 68.98 300.17 69.98C305.2 70.98 310.01 72.55 314.59 74.7C319.17 76.84 323.63 79.61 327.98 82.99C332.33 86.37 336.65 90.4 340.96 95.07C342.52 96.98 343.32 98.76 343.36 100.43C343.41 102.1 342.38 103.89 340.27 105.79C336.7 108.84 333.29 111.84 330.04 114.8C326.79 117.75 323.43 121.04 319.95 124.66C318.85 125.61 317.75 126.21 316.65 126.45C315.55 126.69 314.5 126.66 313.49 126.38C312.48 126.09 311.52 125.62 310.61 124.95C309.69 124.28 308.87 123.47 308.14 122.52C304.93 118.8 301.27 116.3 297.15 115.01C293.03 113.72 289.19 113.08 285.62 113.08C281.13 113.08 277.56 113.89 274.91 115.51C272.25 117.13 271.02 119.61 271.2 122.94C271.38 125.42 272.27 127.35 273.88 128.73C275.48 130.11 277.45 131.23 279.78 132.09C282.11 132.95 284.58 133.64 287.19 134.16C289.8 134.69 292.2 135.28 294.4 135.95C302.64 138.72 310.19 141.72 317.06 144.96C323.93 148.2 329.87 152.18 334.91 156.9C339.94 161.62 343.86 167.26 346.65 173.84C349.44 180.42 350.84 188.42 350.84 197.86C350.84 207.3 349.03 215.73 345.42 223.16C341.8 230.59 336.84 236.84 330.52 241.89C324.2 246.94 316.72 250.8 308.07 253.47C299.42 256.14 290.1 257.47 280.13 257.47C274.45 257.47 268.69 256.95 262.83 255.9C256.97 254.85 251.3 253.16 245.8 250.83C240.31 248.5 235.09 245.49 230.15 241.82C225.21 238.15 220.81 233.7 216.97 228.45C215.96 227.12 215.21 225.71 214.7 224.23C214.2 222.75 213.97 221.3 214.01 219.87C214.06 218.44 214.33 217.13 214.83 215.94C215.33 214.75 216.13 213.72 217.23 212.87L234.94 194.43C237.14 192.53 239.08 191.86 240.78 192.43C242.47 193 244.65 194.62 247.3 197.29L247.31 197.28Z" fill="black"/>
<path d="M380.08 11.01C380.08 7.01 380.9 4.17 382.55 2.5C384.2 0.83 386.76 0 390.24 0H422.1C425.3 0 427.89 0.84 429.86 2.5C431.83 4.17 432.81 7 432.81 11.01V38.89C432.81 40.03 432.56 41.27 432.06 42.61C431.56 43.95 430.85 45.23 429.93 46.47C429.01 47.71 427.89 48.74 426.57 49.54C425.24 50.35 423.76 50.76 422.11 50.76H390.25C383.47 50.76 380.09 46.81 380.09 38.89V11.01H380.08Z" fill="#EA581B"/>
<path d="M380.08 83.34C380.08 80.29 380.9 77.67 382.55 75.48C384.2 73.29 386.76 72.19 390.24 72.19H421.68C422.78 72.19 423.97 72.45 425.25 72.98C426.53 73.5 427.72 74.27 428.82 75.27C429.92 76.27 430.86 77.44 431.63 78.77C432.41 80.11 432.8 81.63 432.8 83.34V242.73C432.8 246.35 431.84 249.09 429.92 250.95C428 252.81 425.25 253.74 421.68 253.74H390.24C383.46 253.74 380.08 250.07 380.08 242.73V83.34Z" fill="black"/>
<path d="M469.33 74.75C470.52 73.7 471.78 73.04 473.11 72.75C474.44 72.46 475.7 72.32 476.89 72.32H497.62C499.27 72.32 500.69 72.63 501.88 73.25C503.07 73.87 504.08 74.7 504.9 75.75C505.72 76.8 506.39 77.98 506.89 79.32C507.39 80.65 507.87 82.03 508.33 83.45L511.21 95.99C512.58 93.05 514.8 90 517.87 86.87C520.94 83.73 524.74 80.88 529.27 78.32C533.8 75.76 539.04 73.64 544.99 71.98C550.94 70.32 557.58 69.48 564.9 69.48C575.34 69.48 584.65 71.57 592.84 75.75C601.03 79.93 607.99 85.63 613.71 92.86C619.43 100.08 623.78 108.52 626.75 118.18C629.72 127.84 631.21 138.15 631.21 149.11V242.74C631.21 246.36 630.45 249.1 628.94 250.96C627.43 252.82 625.03 253.75 621.73 253.75H590.01C586.07 253.75 583.37 253.06 581.91 251.68C580.44 250.3 579.71 247.61 579.71 243.6V150.54C579.71 146.44 578.82 142.56 577.03 138.89C575.24 135.22 572.89 131.98 569.96 129.17C567.03 126.36 563.71 124.14 560.01 122.52C556.3 120.9 552.53 120.09 548.68 120.09C545.38 120.09 542.02 120.85 538.59 122.38C535.16 123.91 532 126.03 529.12 128.74C526.24 131.46 523.81 134.65 521.84 138.32C519.87 141.99 518.75 145.97 518.48 150.26V243.18C518.48 244.8 518.18 246.42 517.59 248.04C516.99 249.66 516.1 250.9 514.91 251.76C513.72 252.52 512.6 253.05 511.55 253.33C510.5 253.62 509.28 253.76 507.91 253.76H476.88C472.94 253.76 470.1 252.76 468.37 250.76C466.63 248.76 465.76 246.09 465.76 242.75V82.88C465.76 81.08 466.15 79.41 466.93 77.89C467.71 76.37 468.78 75.18 470.16 74.32L469.34 74.75H469.33Z" fill="black"/>
<path d="M680.78 74.76C680.78 65.9 682.61 57.56 686.27 49.74C689.93 41.93 694.83 35.09 700.96 29.23C707.09 23.37 714.14 18.75 722.11 15.36C730.07 11.98 738.4 10.29 747.1 10.29H749.85C752.96 10.29 755.36 11.27 757.06 13.22C758.75 15.17 759.6 17.87 759.6 21.3V48.6C759.6 52.13 758.71 55.06 756.92 57.39C755.13 59.73 752.78 60.89 749.85 60.89H747.1C745.18 60.89 743.34 61.25 741.61 61.96C739.87 62.67 738.31 63.65 736.94 64.89C735.57 66.13 734.47 67.58 733.65 69.25C732.83 70.92 732.41 72.75 732.41 74.75V91.19H753.97C757.08 91.19 759.48 92.07 761.18 93.83C762.87 95.59 763.72 98.38 763.72 102.19V128.35C763.72 132.45 762.87 135.45 761.18 137.36C759.48 139.27 757.08 140.22 753.97 140.22H732.41V242.72C732.41 246.34 731.24 249.08 728.91 250.94C726.58 252.8 724.04 253.73 721.29 253.73H691.63C688.33 253.73 685.7 252.66 683.73 250.51C681.76 248.37 680.78 245.77 680.78 242.72V140.22H666.64C663.43 140.22 660.85 139.27 658.88 137.36C656.91 135.45 655.93 132.45 655.93 128.35V102.19C655.93 98.38 656.91 95.59 658.88 93.83C660.85 92.07 663.43 91.19 666.64 91.19H680.78V74.75V74.76Z" fill="black"/>
<path d="M772.64 85.91C771.17 82.1 771.15 78.83 772.57 76.12C773.99 73.4 777.12 72.05 781.98 72.05H815.9C818.19 72.05 820.06 72.79 821.53 74.27C822.99 75.75 824.09 77.58 824.83 79.77L863.69 194.85L901.72 79.77C902.73 76.72 904.01 74.67 905.56 73.62C907.12 72.57 909.27 72.05 912.01 72.05H947.3C949.86 72.05 951.88 72.41 953.34 73.12C954.8 73.83 955.83 74.79 956.43 75.98C957.02 77.17 957.23 78.51 957.05 79.98C956.87 81.46 956.5 82.91 955.95 84.34C952.47 93.3 948.67 103.09 944.55 113.72C940.43 124.35 936.15 135.4 931.71 146.89C927.27 158.37 922.76 170.05 918.18 181.91C913.6 193.77 909.14 205.43 904.79 216.86C900.44 228.3 896.25 239.28 892.23 249.81C888.2 260.34 884.52 270.01 881.18 278.83C877.84 287.64 874.93 295.39 872.46 302.06C869.99 308.73 868.11 313.88 866.83 317.5L867.24 316.79C866.6 319.36 865.45 321.44 863.81 323.01C862.17 324.58 860.15 325.37 857.77 325.37H826.05C821.93 325.37 819.12 324.53 817.61 322.87C816.1 321.2 815.34 318.75 815.34 315.51C815.34 314.27 815.5 313.32 815.82 312.65C816.14 311.98 816.39 311.55 816.57 311.36L838.13 253.04L772.63 85.93L772.64 85.91Z" fill="black"/>
</svg>
