<svg width="149" height="399" viewBox="0 0 149 399" fill="none" xmlns="http://www.w3.org/2000/svg">
<g clip-path="url(#clip0_674_342)">
<path d="M27.6309 208.021C28.8267 216.329 30.9912 224.038 34.1569 231.144C37.3192 238.232 41.0898 244 45.4618 248.433L152.265 356.37C167.603 371.873 182.273 379.062 196.307 377.971C210.334 376.859 223.57 370.168 236.004 357.866L359.649 235.536C373.16 222.168 379.905 209.098 379.916 196.315C379.92 183.531 372.255 169.39 356.928 153.898L249.891 45.7107L249.121 163.369C249.087 168.63 247.637 173.137 244.776 176.908C241.915 180.679 237.473 182.554 231.475 182.529L177.263 182.304C175.369 182.297 173.324 181.829 171.126 180.917C168.924 180.008 166.869 178.681 164.991 176.949C163.112 175.218 161.5 173.195 160.178 170.892C158.853 168.577 158.194 165.948 158.213 162.992L158.973 45.2001L41.5837 161.356C35.1792 167.692 30.9655 174.963 28.9207 183.196C26.8615 191.429 26.4351 199.706 27.6309 208.021ZM157.701 239.652C157.714 237.679 158.169 235.542 159.051 233.248C159.933 230.953 161.176 228.74 162.765 226.608C164.355 224.475 166.303 222.713 168.599 221.338C170.895 219.95 173.469 219.263 176.305 219.278L231.226 219.506C242.918 219.554 248.705 226.393 248.616 240.029L248.301 288.105C248.256 294.999 246.808 299.878 243.949 302.75C241.094 305.611 236.658 307.034 230.653 307.009L175.733 306.781C170.212 306.758 165.766 305.298 162.381 302.415C159.011 299.518 157.341 294.622 157.39 287.732L157.704 239.656L157.701 239.652Z" fill="#FFC4AB"/>
</g>
<defs>
<clipPath id="clip0_674_342">
<rect width="287.897" height="276.438" fill="white" transform="translate(0.000244141 202.483) rotate(-44.6938)"/>
</clipPath>
</defs>
</svg>
