<svg width="45" height="45" viewBox="0 0 45 45" fill="none" xmlns="http://www.w3.org/2000/svg">
<path d="M24.2507 6.64789V43.1579C24.2521 43.3993 24.2078 43.6386 24.1204 43.862C24.0331 44.0855 23.9044 44.2886 23.7418 44.4598C23.5791 44.631 23.3858 44.7669 23.1728 44.8596C22.9598 44.9523 22.7314 45 22.5008 45C22.2701 45 22.0417 44.9523 21.8288 44.8596C21.6158 44.7669 21.4224 44.631 21.2598 44.4598C21.0971 44.2886 20.9685 44.0855 20.8811 43.862C20.7938 43.6386 20.7495 43.3993 20.7508 43.1579V6.64789L7.99001 20.8387C7.83262 21.0185 7.64119 21.1622 7.42789 21.2605C7.21459 21.3587 6.98409 21.4095 6.75104 21.4095C6.518 21.4095 6.2875 21.3587 6.0742 21.2605C5.8609 21.1622 5.66947 21.0185 5.51208 20.8387C5.18275 20.4635 5 19.9726 5 19.4632C5 18.9537 5.18275 18.4629 5.51208 18.0877L21.2618 0.570843C21.4192 0.390951 21.6106 0.247302 21.8239 0.149026C22.0372 0.0507511 22.2677 0 22.5008 0C22.7338 0 22.9643 0.0507511 23.1776 0.149026C23.3909 0.247302 23.5824 0.390951 23.7398 0.570843L39.4895 18.0877C39.8179 18.4627 40 18.9528 40 19.4614C40 19.97 39.8179 20.4601 39.4895 20.835C39.3321 21.0149 39.1407 21.1586 38.9274 21.2568C38.7141 21.3551 38.4836 21.4059 38.2505 21.4059C38.0175 21.4059 37.787 21.3551 37.5737 21.2568C37.3604 21.1586 37.1689 21.0149 37.0115 20.835L24.2507 6.6516V6.64789Z" fill="white"/>
</svg>
