<svg width="563" height="542" viewBox="0 0 563 542" fill="none" xmlns="http://www.w3.org/2000/svg">
<g clip-path="url(#clip0_782_398)">
<path d="M30.78 45.79C21.02 59.01 13.43 72.73 8.06 86.99C2.71 101.22 0.02 114.45 0 126.65L0.02 424.17C0.02 466.9 10.52 497.13 31.52 514.95C52.54 532.73 80.13 541.65 114.32 541.65H454.3C491.45 541.65 518.79 532.74 536.38 514.95C553.96 497.15 562.75 466.89 562.75 424.19V126L399.93 288.82C392.65 296.1 384.44 300.38 375.28 301.69C366.12 303 357.37 299.49 349.07 291.19L274.05 216.17C271.43 213.55 269.23 210.08 267.43 205.78C265.62 201.48 264.59 196.8 264.36 191.8C264.13 186.8 264.67 181.76 266 176.73C267.34 171.68 270.04 167.11 274.13 163.02L437.12 0L114.32 0.02C96.71 0.02 80.86 4.34 66.7 12.99C52.52 21.62 40.55 32.56 30.78 45.79ZM168.03 269.09C170.76 266.36 174.33 264.01 178.71 262.03C183.09 260.05 187.86 258.68 193 257.9C198.14 257.12 203.27 257.35 208.35 258.6C213.45 259.83 217.97 262.42 221.89 266.35L297.89 342.35C314.07 358.53 312.71 376.03 293.84 394.9L227.31 461.43C217.77 470.97 209.05 475.77 201.13 475.83C193.23 475.88 185.11 471.75 176.8 463.44L100.8 387.44C93.16 379.8 88.99 371.64 88.25 362.96C87.55 354.28 91.96 345.16 101.5 335.63L168.03 269.1V269.09Z" fill="#EA581B"/>
</g>
<defs>
<clipPath id="clip0_782_398">
<rect width="562.74" height="541.64" fill="white"/>
</clipPath>
</defs>
</svg>
